<mxfile host="65bd71144e">
    <diagram id="b77qTlxBt0zyxVYEo7v-" name="Page-1">
        <mxGraphModel dx="3353" dy="2440" grid="1" gridSize="10" guides="1" tooltips="1" connect="1" arrows="1" fold="1" page="1" pageScale="1" pageWidth="850" pageHeight="1100" math="0" shadow="0">
            <root>
                <mxCell id="0"/>
                <mxCell id="1" parent="0"/>
                <mxCell id="2" value="" style="rounded=0;whiteSpace=wrap;html=1;fillColor=none;fontFamily=Helvetica;fontColor=#FFFFFF;fontStyle=0;labelBackgroundColor=none;" parent="1" vertex="1">
                    <mxGeometry x="-290" y="-1070" width="670" height="450" as="geometry"/>
                </mxCell>
                <mxCell id="3" value="CU-CP .50&lt;br&gt;10.1.20.50" style="rounded=0;whiteSpace=wrap;html=1;fontFamily=Helvetica;fontColor=#FFFFFF;fontStyle=0;labelBackgroundColor=none;" parent="1" vertex="1">
                    <mxGeometry x="-610" y="-820" width="240" height="60" as="geometry"/>
                </mxCell>
                <mxCell id="6" value="" style="endArrow=none;html=1;entryX=0.5;entryY=1;entryDx=0;entryDy=0;exitX=0.25;exitY=0;exitDx=0;exitDy=0;fontFamily=Helvetica;fontColor=#FFFFFF;fontStyle=0;labelBackgroundColor=none;" parent="1" source="112" target="3" edge="1">
                    <mxGeometry width="50" height="50" relative="1" as="geometry">
                        <mxPoint x="-473" y="-610" as="sourcePoint"/>
                        <mxPoint x="-590" y="-640" as="targetPoint"/>
                    </mxGeometry>
                </mxCell>
                <mxCell id="7" value="E1&lt;br&gt;if-cu-cp-e1" style="edgeLabel;html=1;align=center;verticalAlign=middle;resizable=0;points=[];fontFamily=Helvetica;fontColor=#FFFFFF;fontStyle=0;labelBackgroundColor=none;" parent="6" vertex="1" connectable="0">
                    <mxGeometry x="0.2775" relative="1" as="geometry">
                        <mxPoint x="4" y="17" as="offset"/>
                    </mxGeometry>
                </mxCell>
                <mxCell id="9" value="10.1.150.50/24" style="edgeLabel;html=1;align=center;verticalAlign=middle;resizable=0;points=[];fontFamily=Helvetica;fontColor=#FFFFFF;fontStyle=0;labelBackgroundColor=none;" parent="6" vertex="1" connectable="0">
                    <mxGeometry x="0.3362" y="-1" relative="1" as="geometry">
                        <mxPoint x="-44" y="-22" as="offset"/>
                    </mxGeometry>
                </mxCell>
                <mxCell id="18" value="DU .10" style="rounded=0;whiteSpace=wrap;html=1;fontFamily=Helvetica;fontColor=#FFFFFF;fontStyle=0;labelBackgroundColor=none;" parent="1" vertex="1">
                    <mxGeometry x="-1340" y="-550" width="120" height="60" as="geometry"/>
                </mxCell>
                <mxCell id="32" value="UE .100" style="rounded=0;whiteSpace=wrap;html=1;fontFamily=Helvetica;fontColor=#FFFFFF;fontStyle=0;labelBackgroundColor=none;" parent="1" vertex="1">
                    <mxGeometry x="-1650" y="-510" width="120" height="60" as="geometry"/>
                </mxCell>
                <mxCell id="33" value="" style="endArrow=none;html=1;entryX=0.25;entryY=1;entryDx=0;entryDy=0;exitX=0;exitY=0;exitDx=0;exitDy=0;fontFamily=Helvetica;fontColor=#FFFFFF;fontStyle=0;labelBackgroundColor=none;" parent="1" source="112" target="3" edge="1">
                    <mxGeometry width="50" height="50" relative="1" as="geometry">
                        <mxPoint x="-513" y="-608.98" as="sourcePoint"/>
                        <mxPoint x="-400" y="-640" as="targetPoint"/>
                    </mxGeometry>
                </mxCell>
                <mxCell id="34" value="F1-C&lt;br&gt;if-cu-cp-f1c" style="edgeLabel;html=1;align=center;verticalAlign=middle;resizable=0;points=[];fontFamily=Helvetica;fontColor=#FFFFFF;fontStyle=0;labelBackgroundColor=none;" parent="33" vertex="1" connectable="0">
                    <mxGeometry x="0.2775" relative="1" as="geometry">
                        <mxPoint x="-20" y="21" as="offset"/>
                    </mxGeometry>
                </mxCell>
                <mxCell id="36" value="10.1.100.50/24" style="edgeLabel;html=1;align=center;verticalAlign=middle;resizable=0;points=[];fontFamily=Helvetica;fontColor=#FFFFFF;fontStyle=0;labelBackgroundColor=none;" parent="33" vertex="1" connectable="0">
                    <mxGeometry x="0.6516" y="1" relative="1" as="geometry">
                        <mxPoint x="-53" y="11" as="offset"/>
                    </mxGeometry>
                </mxCell>
                <mxCell id="37" value="" style="endArrow=none;html=1;entryX=0;entryY=0.25;entryDx=0;entryDy=0;exitX=1;exitY=0.5;exitDx=0;exitDy=0;fontFamily=Helvetica;fontColor=#FFFFFF;fontStyle=0;labelBackgroundColor=none;" parent="1" source="32" target="18" edge="1">
                    <mxGeometry width="50" height="50" relative="1" as="geometry">
                        <mxPoint x="-610" y="-310" as="sourcePoint"/>
                        <mxPoint x="-560" y="-360" as="targetPoint"/>
                    </mxGeometry>
                </mxCell>
                <mxCell id="38" value="10.1.50.100/25" style="edgeLabel;html=1;align=center;verticalAlign=middle;resizable=0;points=[];fontFamily=Helvetica;fontColor=#FFFFFF;fontStyle=0;labelBackgroundColor=none;" parent="37" vertex="1" connectable="0">
                    <mxGeometry x="-0.6307" y="2" relative="1" as="geometry">
                        <mxPoint x="12" y="5" as="offset"/>
                    </mxGeometry>
                </mxCell>
                <mxCell id="39" value="10.1.50.10/24" style="edgeLabel;html=1;align=center;verticalAlign=middle;resizable=0;points=[];fontFamily=Helvetica;fontColor=#FFFFFF;fontStyle=0;labelBackgroundColor=none;" parent="37" vertex="1" connectable="0">
                    <mxGeometry x="0.3474" y="-4" relative="1" as="geometry">
                        <mxPoint as="offset"/>
                    </mxGeometry>
                </mxCell>
                <mxCell id="44" value="AMF&lt;br&gt;10.1.20.10" style="rounded=0;whiteSpace=wrap;html=1;fontFamily=Helvetica;fontColor=#FFFFFF;fontStyle=0;labelBackgroundColor=none;" parent="1" vertex="1">
                    <mxGeometry x="-260" y="-740" width="120" height="60" as="geometry"/>
                </mxCell>
                <mxCell id="49" value="SMF-1&lt;br&gt;10.1.20.51" style="rounded=0;whiteSpace=wrap;html=1;fontFamily=Helvetica;fontColor=#FFFFFF;fontStyle=0;labelBackgroundColor=none;" parent="1" vertex="1">
                    <mxGeometry x="-40" y="-720" width="120" height="60" as="geometry"/>
                </mxCell>
                <mxCell id="50" value="" style="endArrow=none;html=1;exitX=1;exitY=0.75;exitDx=0;exitDy=0;entryX=0;entryY=0.5;entryDx=0;entryDy=0;dashed=1;dashPattern=8 8;fontFamily=Helvetica;fontColor=#FFFFFF;fontStyle=0;labelBackgroundColor=none;" parent="1" source="44" target="49" edge="1">
                    <mxGeometry width="50" height="50" relative="1" as="geometry">
                        <mxPoint x="-70" y="-730" as="sourcePoint"/>
                        <mxPoint x="-20" y="-780" as="targetPoint"/>
                    </mxGeometry>
                </mxCell>
                <mxCell id="51" value="AUSF&lt;br&gt;10.1.20.12" style="rounded=0;whiteSpace=wrap;html=1;fontFamily=Helvetica;fontColor=#FFFFFF;fontStyle=0;labelBackgroundColor=none;" parent="1" vertex="1">
                    <mxGeometry x="-240" y="-870" width="120" height="60" as="geometry"/>
                </mxCell>
                <mxCell id="52" value="UDM&lt;br&gt;10.1.20.13" style="rounded=0;whiteSpace=wrap;html=1;fontFamily=Helvetica;fontColor=#FFFFFF;fontStyle=0;labelBackgroundColor=none;" parent="1" vertex="1">
                    <mxGeometry x="-70" y="-860" width="120" height="60" as="geometry"/>
                </mxCell>
                <mxCell id="53" value="" style="endArrow=none;html=1;exitX=0.5;exitY=0;exitDx=0;exitDy=0;entryX=0.5;entryY=1;entryDx=0;entryDy=0;dashed=1;dashPattern=8 8;fontFamily=Helvetica;fontColor=#FFFFFF;fontStyle=0;labelBackgroundColor=none;" parent="1" source="44" target="51" edge="1">
                    <mxGeometry width="50" height="50" relative="1" as="geometry">
                        <mxPoint x="-130" y="-715" as="sourcePoint"/>
                        <mxPoint x="200" y="-720" as="targetPoint"/>
                    </mxGeometry>
                </mxCell>
                <mxCell id="54" value="" style="endArrow=none;html=1;exitX=0.75;exitY=0;exitDx=0;exitDy=0;entryX=0.5;entryY=1;entryDx=0;entryDy=0;dashed=1;dashPattern=8 8;fontFamily=Helvetica;fontColor=#FFFFFF;fontStyle=0;labelBackgroundColor=none;" parent="1" source="44" target="52" edge="1">
                    <mxGeometry width="50" height="50" relative="1" as="geometry">
                        <mxPoint x="-120" y="-705" as="sourcePoint"/>
                        <mxPoint x="210" y="-710" as="targetPoint"/>
                    </mxGeometry>
                </mxCell>
                <mxCell id="55" value="UDR&lt;br&gt;10.1.20.14" style="rounded=0;whiteSpace=wrap;html=1;fontFamily=Helvetica;fontColor=#FFFFFF;fontStyle=0;labelBackgroundColor=none;" parent="1" vertex="1">
                    <mxGeometry x="-120" y="-940" width="120" height="60" as="geometry"/>
                </mxCell>
                <mxCell id="56" value="NRF&lt;br&gt;10.1.20.15" style="rounded=0;whiteSpace=wrap;html=1;fontFamily=Helvetica;fontColor=#FFFFFF;fontStyle=0;labelBackgroundColor=none;" parent="1" vertex="1">
                    <mxGeometry x="50" y="-940" width="120" height="60" as="geometry"/>
                </mxCell>
                <mxCell id="69" value="10.1.20.0/24" style="text;html=1;align=center;verticalAlign=middle;resizable=0;points=[];autosize=1;strokeColor=none;fillColor=none;fontFamily=Helvetica;fontColor=#FFFFFF;fontStyle=0;labelBackgroundColor=none;" parent="1" vertex="1">
                    <mxGeometry x="-285" y="-980" width="90" height="30" as="geometry"/>
                </mxCell>
                <mxCell id="72" value="MYSQL&lt;br&gt;10.1.20.16" style="rounded=0;whiteSpace=wrap;html=1;fontFamily=Helvetica;fontColor=#FFFFFF;fontStyle=0;labelBackgroundColor=none;" parent="1" vertex="1">
                    <mxGeometry x="-260" y="-950" width="120" height="60" as="geometry"/>
                </mxCell>
                <mxCell id="73" value="" style="endArrow=none;html=1;exitX=1;exitY=0.5;exitDx=0;exitDy=0;entryX=0;entryY=0.5;entryDx=0;entryDy=0;fontFamily=Helvetica;fontColor=#FFFFFF;fontStyle=0;labelBackgroundColor=none;" parent="1" source="18" target="110" edge="1">
                    <mxGeometry width="50" height="50" relative="1" as="geometry">
                        <mxPoint x="-600" y="-370" as="sourcePoint"/>
                        <mxPoint x="-822.3399999999997" y="-382.9796000000001" as="targetPoint"/>
                    </mxGeometry>
                </mxCell>
                <mxCell id="74" value="F1-UC&lt;br&gt;if-du-f1uc" style="edgeLabel;html=1;align=center;verticalAlign=middle;resizable=0;points=[];fontFamily=Helvetica;fontColor=#FFFFFF;fontStyle=0;labelBackgroundColor=none;" parent="73" vertex="1" connectable="0">
                    <mxGeometry x="0.188" y="1" relative="1" as="geometry">
                        <mxPoint x="-7" y="-19" as="offset"/>
                    </mxGeometry>
                </mxCell>
                <mxCell id="160" value="10.1.100.10" style="edgeLabel;html=1;align=center;verticalAlign=middle;resizable=0;points=[];fontFamily=Helvetica;fontColor=#FFFFFF;fontStyle=0;labelBackgroundColor=none;" parent="73" vertex="1" connectable="0">
                    <mxGeometry x="-0.6161" relative="1" as="geometry">
                        <mxPoint y="20" as="offset"/>
                    </mxGeometry>
                </mxCell>
                <mxCell id="89" value="CU-UP-1 .201" style="rounded=0;whiteSpace=wrap;html=1;fontFamily=Helvetica;fontColor=#FFFFFF;fontStyle=0;labelBackgroundColor=none;" parent="1" vertex="1">
                    <mxGeometry x="-1380" y="-300" width="120" height="60" as="geometry"/>
                </mxCell>
                <mxCell id="90" value="" style="endArrow=none;html=1;entryX=0.5;entryY=0;entryDx=0;entryDy=0;exitX=0.25;exitY=1;exitDx=0;exitDy=0;fontFamily=Helvetica;fontColor=#FFFFFF;fontStyle=0;labelBackgroundColor=none;" parent="1" source="110" target="89" edge="1">
                    <mxGeometry width="50" height="50" relative="1" as="geometry">
                        <mxPoint x="-818.77" y="-383.36343999999985" as="sourcePoint"/>
                        <mxPoint x="-690" y="-402.28" as="targetPoint"/>
                    </mxGeometry>
                </mxCell>
                <mxCell id="91" value="E1&lt;br&gt;if-cu-up-1-e1" style="edgeLabel;html=1;align=center;verticalAlign=middle;resizable=0;points=[];fontFamily=Helvetica;fontColor=#FFFFFF;fontStyle=0;labelBackgroundColor=none;" parent="90" vertex="1" connectable="0">
                    <mxGeometry x="-0.3458" y="1" relative="1" as="geometry">
                        <mxPoint x="-1" y="-9" as="offset"/>
                    </mxGeometry>
                </mxCell>
                <mxCell id="93" value="10.1.150.201/24" style="edgeLabel;html=1;align=center;verticalAlign=middle;resizable=0;points=[];fontFamily=Helvetica;fontColor=#FFFFFF;fontStyle=0;labelBackgroundColor=none;" parent="90" vertex="1" connectable="0">
                    <mxGeometry x="0.4586" relative="1" as="geometry">
                        <mxPoint x="2" y="-9" as="offset"/>
                    </mxGeometry>
                </mxCell>
                <mxCell id="94" value="" style="endArrow=none;html=1;entryX=0;entryY=1;entryDx=0;entryDy=0;exitX=0;exitY=0;exitDx=0;exitDy=0;fontFamily=Helvetica;fontColor=#FFFFFF;fontStyle=0;labelBackgroundColor=none;" parent="1" source="89" target="110" edge="1">
                    <mxGeometry width="50" height="50" relative="1" as="geometry">
                        <mxPoint x="-810" y="-172.27999999999997" as="sourcePoint"/>
                        <mxPoint x="-831.79" y="-382.9796000000001" as="targetPoint"/>
                    </mxGeometry>
                </mxCell>
                <mxCell id="95" value="F1-U&lt;br&gt;if-cu-up-1-f1u" style="edgeLabel;html=1;align=center;verticalAlign=middle;resizable=0;points=[];fontFamily=Helvetica;fontColor=#FFFFFF;fontStyle=0;labelBackgroundColor=none;" parent="94" vertex="1" connectable="0">
                    <mxGeometry x="0.244" relative="1" as="geometry">
                        <mxPoint x="-24" y="7" as="offset"/>
                    </mxGeometry>
                </mxCell>
                <mxCell id="97" value="10.1.100.201/24" style="edgeLabel;html=1;align=center;verticalAlign=middle;resizable=0;points=[];fontFamily=Helvetica;fontColor=#FFFFFF;fontStyle=0;labelBackgroundColor=none;" parent="94" vertex="1" connectable="0">
                    <mxGeometry x="-0.6052" y="1" relative="1" as="geometry">
                        <mxPoint x="-57" y="9" as="offset"/>
                    </mxGeometry>
                </mxCell>
                <mxCell id="98" value="" style="endArrow=none;html=1;exitX=0.5;exitY=0;exitDx=0;exitDy=0;entryX=0.75;entryY=1;entryDx=0;entryDy=0;fontFamily=Helvetica;fontColor=#FFFFFF;fontStyle=0;labelBackgroundColor=none;" parent="1" source="102" target="110" edge="1">
                    <mxGeometry width="50" height="50" relative="1" as="geometry">
                        <mxPoint x="-817.8796520931196" y="-382.02" as="sourcePoint"/>
                        <mxPoint x="-950" y="-490" as="targetPoint"/>
                    </mxGeometry>
                </mxCell>
                <mxCell id="162" value="CN&lt;br&gt;if-upf-1-cn" style="edgeLabel;html=1;align=center;verticalAlign=middle;resizable=0;points=[];fontFamily=Helvetica;fontColor=#FFFFFF;fontStyle=0;labelBackgroundColor=none;" parent="98" vertex="1" connectable="0">
                    <mxGeometry x="-0.0734" y="-1" relative="1" as="geometry">
                        <mxPoint x="8" y="-21" as="offset"/>
                    </mxGeometry>
                </mxCell>
                <mxCell id="184" value="&lt;span style=&quot;font-size: 12px;&quot;&gt;10.1.20.101&lt;/span&gt;" style="edgeLabel;html=1;align=center;verticalAlign=middle;resizable=0;points=[];fontFamily=Helvetica;fontColor=#FFFFFF;fontStyle=0;labelBackgroundColor=none;" parent="98" vertex="1" connectable="0">
                    <mxGeometry x="-0.4292" y="1" relative="1" as="geometry">
                        <mxPoint x="47" y="19" as="offset"/>
                    </mxGeometry>
                </mxCell>
                <mxCell id="102" value="UPF-1 .101" style="rounded=0;whiteSpace=wrap;html=1;fontFamily=Helvetica;fontColor=#FFFFFF;fontStyle=0;labelBackgroundColor=none;" parent="1" vertex="1">
                    <mxGeometry x="-1220" y="-300" width="120" height="60" as="geometry"/>
                </mxCell>
                <mxCell id="107" value="" style="endArrow=none;html=1;entryX=0.5;entryY=1;entryDx=0;entryDy=0;fontFamily=Helvetica;fontColor=#FFFFFF;fontStyle=0;labelBackgroundColor=none;" parent="1" target="102" edge="1">
                    <mxGeometry width="50" height="50" relative="1" as="geometry">
                        <mxPoint x="-1160" y="-150" as="sourcePoint"/>
                        <mxPoint x="-190" y="-240" as="targetPoint"/>
                    </mxGeometry>
                </mxCell>
                <mxCell id="108" value="N6" style="edgeLabel;html=1;align=center;verticalAlign=middle;resizable=0;points=[];fontFamily=Helvetica;fontColor=#FFFFFF;fontStyle=0;labelBackgroundColor=none;" parent="107" vertex="1" connectable="0">
                    <mxGeometry x="0.2403" y="-1" relative="1" as="geometry">
                        <mxPoint x="9" y="-13" as="offset"/>
                    </mxGeometry>
                </mxCell>
                <mxCell id="110" value="Edge L3Switch" style="rounded=0;whiteSpace=wrap;html=1;fontFamily=Helvetica;fontColor=#FFFFFF;fontStyle=0;labelBackgroundColor=none;" parent="1" vertex="1">
                    <mxGeometry x="-1040" y="-550" width="120" height="60" as="geometry"/>
                </mxCell>
                <mxCell id="111" value="Regional L3Switch" style="rounded=0;whiteSpace=wrap;html=1;fontFamily=Helvetica;fontColor=#FFFFFF;fontStyle=0;labelBackgroundColor=none;" parent="1" vertex="1">
                    <mxGeometry x="-650" y="-540" width="120" height="60" as="geometry"/>
                </mxCell>
                <mxCell id="112" value="Core L3Switch" style="rounded=0;whiteSpace=wrap;html=1;fontFamily=Helvetica;fontColor=#FFFFFF;fontStyle=0;labelBackgroundColor=none;" parent="1" vertex="1">
                    <mxGeometry x="-300" y="-540" width="120" height="60" as="geometry"/>
                </mxCell>
                <mxCell id="114" value="" style="endArrow=none;html=1;exitX=1;exitY=0.5;exitDx=0;exitDy=0;entryX=0;entryY=0.5;entryDx=0;entryDy=0;fontFamily=Helvetica;fontColor=#FFFFFF;fontStyle=0;labelBackgroundColor=none;" parent="1" source="110" target="111" edge="1">
                    <mxGeometry width="50" height="50" relative="1" as="geometry">
                        <mxPoint x="-770" y="-510" as="sourcePoint"/>
                        <mxPoint x="-720" y="-560" as="targetPoint"/>
                    </mxGeometry>
                </mxCell>
                <mxCell id="117" value="if-edge-region" style="edgeLabel;html=1;align=center;verticalAlign=middle;resizable=0;points=[];fontFamily=Helvetica;fontColor=#FFFFFF;fontStyle=0;labelBackgroundColor=none;" parent="114" vertex="1" connectable="0">
                    <mxGeometry x="0.7548" y="-3" relative="1" as="geometry">
                        <mxPoint x="-77" y="-22" as="offset"/>
                    </mxGeometry>
                </mxCell>
                <mxCell id="115" value="" style="endArrow=none;html=1;exitX=0;exitY=0.5;exitDx=0;exitDy=0;entryX=1;entryY=0.5;entryDx=0;entryDy=0;fontFamily=Helvetica;fontColor=#FFFFFF;fontStyle=0;labelBackgroundColor=none;" parent="1" source="112" target="111" edge="1">
                    <mxGeometry width="50" height="50" relative="1" as="geometry">
                        <mxPoint x="-730.0000000000005" y="-470" as="sourcePoint"/>
                        <mxPoint x="-530.0000000000005" y="-470" as="targetPoint"/>
                    </mxGeometry>
                </mxCell>
                <mxCell id="119" value="if-region-core" style="edgeLabel;html=1;align=center;verticalAlign=middle;resizable=0;points=[];fontFamily=Helvetica;fontColor=#FFFFFF;fontStyle=0;labelBackgroundColor=none;" parent="115" vertex="1" connectable="0">
                    <mxGeometry x="-0.7395" y="1" relative="1" as="geometry">
                        <mxPoint x="-70" y="-11" as="offset"/>
                    </mxGeometry>
                </mxCell>
                <mxCell id="121" value="CU-UP-2 .202" style="rounded=0;whiteSpace=wrap;html=1;fontFamily=Helvetica;fontColor=#FFFFFF;fontStyle=0;labelBackgroundColor=none;" parent="1" vertex="1">
                    <mxGeometry x="-700" y="-350" width="120" height="60" as="geometry"/>
                </mxCell>
                <mxCell id="122" value="" style="endArrow=none;html=1;entryX=0.5;entryY=0;entryDx=0;entryDy=0;exitX=0.25;exitY=1;exitDx=0;exitDy=0;fontFamily=Helvetica;fontColor=#FFFFFF;fontStyle=0;labelBackgroundColor=none;" parent="1" source="111" target="121" edge="1">
                    <mxGeometry width="50" height="50" relative="1" as="geometry">
                        <mxPoint x="-325.00000000000045" y="-458.1" as="sourcePoint"/>
                        <mxPoint x="-215" y="-410.38" as="targetPoint"/>
                    </mxGeometry>
                </mxCell>
                <mxCell id="123" value="E1&lt;br&gt;&lt;div style=&quot;font-size: 14px; line-height: 19px;&quot;&gt;&lt;span style=&quot;&quot;&gt;if-cu-up-2-e1&lt;/span&gt;&lt;/div&gt;" style="edgeLabel;html=1;align=center;verticalAlign=middle;resizable=0;points=[];fontFamily=Helvetica;fontColor=#FFFFFF;fontStyle=0;labelBackgroundColor=none;" parent="122" vertex="1" connectable="0">
                    <mxGeometry x="-0.3458" y="1" relative="1" as="geometry">
                        <mxPoint x="6" y="-3" as="offset"/>
                    </mxGeometry>
                </mxCell>
                <mxCell id="125" value="10.1.150.202/24" style="edgeLabel;html=1;align=center;verticalAlign=middle;resizable=0;points=[];fontFamily=Helvetica;fontColor=#FFFFFF;fontStyle=0;labelBackgroundColor=none;" parent="122" vertex="1" connectable="0">
                    <mxGeometry x="0.4586" relative="1" as="geometry">
                        <mxPoint x="-5" y="5" as="offset"/>
                    </mxGeometry>
                </mxCell>
                <mxCell id="126" value="" style="endArrow=none;html=1;entryX=0;entryY=1;entryDx=0;entryDy=0;exitX=0;exitY=0;exitDx=0;exitDy=0;fontFamily=Helvetica;fontColor=#FFFFFF;fontStyle=0;labelBackgroundColor=none;" parent="1" source="121" target="111" edge="1">
                    <mxGeometry width="50" height="50" relative="1" as="geometry">
                        <mxPoint x="-335" y="-180.38" as="sourcePoint"/>
                        <mxPoint x="-355.00000000000045" y="-458.1" as="targetPoint"/>
                    </mxGeometry>
                </mxCell>
                <mxCell id="127" value="F1-U&lt;br&gt;if-cu-up-2-f1u" style="edgeLabel;html=1;align=center;verticalAlign=middle;resizable=0;points=[];fontFamily=Helvetica;fontColor=#FFFFFF;fontStyle=0;labelBackgroundColor=none;" parent="126" vertex="1" connectable="0">
                    <mxGeometry x="0.244" relative="1" as="geometry">
                        <mxPoint x="-36" y="16" as="offset"/>
                    </mxGeometry>
                </mxCell>
                <mxCell id="129" value="10.1.100.202/24" style="edgeLabel;html=1;align=center;verticalAlign=middle;resizable=0;points=[];fontFamily=Helvetica;fontColor=#FFFFFF;fontStyle=0;labelBackgroundColor=none;" parent="126" vertex="1" connectable="0">
                    <mxGeometry x="-0.6052" y="1" relative="1" as="geometry">
                        <mxPoint x="-44" y="9" as="offset"/>
                    </mxGeometry>
                </mxCell>
                <mxCell id="133" value="UPF-2 .102" style="rounded=0;whiteSpace=wrap;html=1;fontFamily=Helvetica;fontColor=#FFFFFF;fontStyle=0;labelBackgroundColor=none;" parent="1" vertex="1">
                    <mxGeometry x="-510" y="-360" width="120" height="60" as="geometry"/>
                </mxCell>
                <mxCell id="153" value="F1-UC: 100" style="text;html=1;align=center;verticalAlign=middle;resizable=0;points=[];autosize=1;strokeColor=none;fillColor=none;fontFamily=Helvetica;fontColor=#FFFFFF;fontStyle=0;labelBackgroundColor=none;" parent="1" vertex="1">
                    <mxGeometry x="-1005" y="-840" width="90" height="30" as="geometry"/>
                </mxCell>
                <mxCell id="154" value="E1: 150" style="text;html=1;align=center;verticalAlign=middle;resizable=0;points=[];autosize=1;strokeColor=none;fillColor=none;fontFamily=Helvetica;fontColor=#FFFFFF;fontStyle=0;labelBackgroundColor=none;" parent="1" vertex="1">
                    <mxGeometry x="-1000" y="-810" width="60" height="30" as="geometry"/>
                </mxCell>
                <mxCell id="163" value="CU-UP-3 .203" style="rounded=0;whiteSpace=wrap;html=1;fontFamily=Helvetica;fontColor=#FFFFFF;fontStyle=0;labelBackgroundColor=none;" parent="1" vertex="1">
                    <mxGeometry x="-340" y="-370" width="120" height="60" as="geometry"/>
                </mxCell>
                <mxCell id="164" value="" style="endArrow=none;html=1;entryX=0.5;entryY=0;entryDx=0;entryDy=0;exitX=0.25;exitY=1;exitDx=0;exitDy=0;fontFamily=Helvetica;fontColor=#FFFFFF;fontStyle=0;labelBackgroundColor=none;" parent="1" source="112" target="163" edge="1">
                    <mxGeometry width="50" height="50" relative="1" as="geometry">
                        <mxPoint x="-170" y="-450" as="sourcePoint"/>
                        <mxPoint x="155" y="-380.38" as="targetPoint"/>
                    </mxGeometry>
                </mxCell>
                <mxCell id="166" value="10.1.150.203/24" style="edgeLabel;html=1;align=center;verticalAlign=middle;resizable=0;points=[];fontFamily=Helvetica;fontColor=#FFFFFF;fontStyle=0;labelBackgroundColor=none;" parent="164" vertex="1" connectable="0">
                    <mxGeometry x="0.4586" relative="1" as="geometry">
                        <mxPoint x="-4" y="20" as="offset"/>
                    </mxGeometry>
                </mxCell>
                <mxCell id="219" value="E1&lt;br&gt;if-cu-up-3-e1" style="edgeLabel;html=1;align=center;verticalAlign=middle;resizable=0;points=[];fontFamily=Helvetica;fontColor=#FFFFFF;fontStyle=0;labelBackgroundColor=none;" parent="164" vertex="1" connectable="0">
                    <mxGeometry x="-0.6807" y="-1" relative="1" as="geometry">
                        <mxPoint y="13" as="offset"/>
                    </mxGeometry>
                </mxCell>
                <mxCell id="167" value="" style="endArrow=none;html=1;entryX=0;entryY=1;entryDx=0;entryDy=0;exitX=0;exitY=0;exitDx=0;exitDy=0;fontFamily=Helvetica;fontColor=#FFFFFF;fontStyle=0;labelBackgroundColor=none;" parent="1" source="163" target="112" edge="1">
                    <mxGeometry width="50" height="50" relative="1" as="geometry">
                        <mxPoint x="35" y="-150.38" as="sourcePoint"/>
                        <mxPoint x="-230" y="-450" as="targetPoint"/>
                    </mxGeometry>
                </mxCell>
                <mxCell id="169" value="10.1.100.203/24" style="edgeLabel;html=1;align=center;verticalAlign=middle;resizable=0;points=[];fontFamily=Helvetica;fontColor=#FFFFFF;fontStyle=0;labelBackgroundColor=none;" parent="167" vertex="1" connectable="0">
                    <mxGeometry x="-0.6052" y="1" relative="1" as="geometry">
                        <mxPoint x="-44" y="9" as="offset"/>
                    </mxGeometry>
                </mxCell>
                <mxCell id="220" value="F1-U&lt;br&gt;if-cu-up-3-f1u" style="edgeLabel;html=1;align=center;verticalAlign=middle;resizable=0;points=[];fontFamily=Helvetica;fontColor=#FFFFFF;fontStyle=0;labelBackgroundColor=none;" parent="167" vertex="1" connectable="0">
                    <mxGeometry x="0.4617" relative="1" as="geometry">
                        <mxPoint x="-29" y="30" as="offset"/>
                    </mxGeometry>
                </mxCell>
                <mxCell id="172" value="UPF-3 .103" style="rounded=0;whiteSpace=wrap;html=1;fontFamily=Helvetica;fontColor=#FFFFFF;fontStyle=0;labelBackgroundColor=none;" parent="1" vertex="1">
                    <mxGeometry x="-110" y="-380" width="120" height="60" as="geometry"/>
                </mxCell>
                <mxCell id="176" value="" style="endArrow=none;html=1;entryX=0.5;entryY=1;entryDx=0;entryDy=0;fontFamily=Helvetica;fontColor=#FFFFFF;fontStyle=0;labelBackgroundColor=none;" parent="1" target="133" edge="1">
                    <mxGeometry width="50" height="50" relative="1" as="geometry">
                        <mxPoint x="-430" y="-210" as="sourcePoint"/>
                        <mxPoint x="-810" y="-280" as="targetPoint"/>
                    </mxGeometry>
                </mxCell>
                <mxCell id="177" value="N6" style="edgeLabel;html=1;align=center;verticalAlign=middle;resizable=0;points=[];fontFamily=Helvetica;fontColor=#FFFFFF;fontStyle=0;labelBackgroundColor=none;" parent="176" vertex="1" connectable="0">
                    <mxGeometry x="0.2403" y="-1" relative="1" as="geometry">
                        <mxPoint x="9" y="-13" as="offset"/>
                    </mxGeometry>
                </mxCell>
                <mxCell id="178" value="" style="endArrow=none;html=1;entryX=0.5;entryY=1;entryDx=0;entryDy=0;fontFamily=Helvetica;fontColor=#FFFFFF;fontStyle=0;labelBackgroundColor=none;" parent="1" target="172" edge="1">
                    <mxGeometry width="50" height="50" relative="1" as="geometry">
                        <mxPoint x="-40" y="-210" as="sourcePoint"/>
                        <mxPoint x="-420" y="-280" as="targetPoint"/>
                    </mxGeometry>
                </mxCell>
                <mxCell id="179" value="N6" style="edgeLabel;html=1;align=center;verticalAlign=middle;resizable=0;points=[];fontFamily=Helvetica;fontColor=#FFFFFF;fontStyle=0;labelBackgroundColor=none;" parent="178" vertex="1" connectable="0">
                    <mxGeometry x="0.2403" y="-1" relative="1" as="geometry">
                        <mxPoint x="9" y="-13" as="offset"/>
                    </mxGeometry>
                </mxCell>
                <mxCell id="180" value="CN: 20" style="text;html=1;align=center;verticalAlign=middle;resizable=0;points=[];autosize=1;strokeColor=none;fillColor=none;fontFamily=Helvetica;fontColor=#FFFFFF;fontStyle=0;labelBackgroundColor=none;" parent="1" vertex="1">
                    <mxGeometry x="-1000" y="-870" width="60" height="30" as="geometry"/>
                </mxCell>
                <mxCell id="181" value="" style="endArrow=none;html=1;entryX=1;entryY=0;entryDx=0;entryDy=0;exitX=0.5;exitY=1;exitDx=0;exitDy=0;fontFamily=Helvetica;fontColor=#FFFFFF;fontStyle=0;labelBackgroundColor=none;" parent="1" source="110" target="89" edge="1">
                    <mxGeometry width="50" height="50" relative="1" as="geometry">
                        <mxPoint x="-970" y="-480" as="sourcePoint"/>
                        <mxPoint x="-1060" y="-340" as="targetPoint"/>
                    </mxGeometry>
                </mxCell>
                <mxCell id="182" value="CN&lt;br&gt;if-cu-up-1-cn" style="edgeLabel;html=1;align=center;verticalAlign=middle;resizable=0;points=[];fontFamily=Helvetica;fontColor=#FFFFFF;fontStyle=0;labelBackgroundColor=none;" parent="181" vertex="1" connectable="0">
                    <mxGeometry x="-0.3458" y="1" relative="1" as="geometry">
                        <mxPoint x="-35" y="31" as="offset"/>
                    </mxGeometry>
                </mxCell>
                <mxCell id="183" value="&lt;span style=&quot;font-size: 12px;&quot;&gt;10.1.20.201/24&lt;/span&gt;" style="edgeLabel;html=1;align=center;verticalAlign=middle;resizable=0;points=[];fontFamily=Helvetica;fontColor=#FFFFFF;fontStyle=0;labelBackgroundColor=none;" parent="181" vertex="1" connectable="0">
                    <mxGeometry x="0.4586" relative="1" as="geometry">
                        <mxPoint x="4" y="18" as="offset"/>
                    </mxGeometry>
                </mxCell>
                <mxCell id="185" value="" style="endArrow=none;html=1;entryX=1;entryY=0;entryDx=0;entryDy=0;exitX=0.5;exitY=1;exitDx=0;exitDy=0;fontFamily=Helvetica;fontColor=#FFFFFF;fontStyle=0;labelBackgroundColor=none;" parent="1" source="111" target="121" edge="1">
                    <mxGeometry width="50" height="50" relative="1" as="geometry">
                        <mxPoint x="-940" y="-480" as="sourcePoint"/>
                        <mxPoint x="-1000" y="-340" as="targetPoint"/>
                    </mxGeometry>
                </mxCell>
                <mxCell id="186" value="CN&lt;br&gt;if-cu-up-2-cn" style="edgeLabel;html=1;align=center;verticalAlign=middle;resizable=0;points=[];fontFamily=Helvetica;fontColor=#FFFFFF;fontStyle=0;labelBackgroundColor=none;" parent="185" vertex="1" connectable="0">
                    <mxGeometry x="-0.3458" y="1" relative="1" as="geometry">
                        <mxPoint x="16" y="37" as="offset"/>
                    </mxGeometry>
                </mxCell>
                <mxCell id="187" value="&lt;span style=&quot;font-size: 12px;&quot;&gt;10.1.20.202/24&lt;/span&gt;" style="edgeLabel;html=1;align=center;verticalAlign=middle;resizable=0;points=[];fontFamily=Helvetica;fontColor=#FFFFFF;fontStyle=0;labelBackgroundColor=none;" parent="185" vertex="1" connectable="0">
                    <mxGeometry x="0.4586" relative="1" as="geometry">
                        <mxPoint x="4" y="25" as="offset"/>
                    </mxGeometry>
                </mxCell>
                <mxCell id="188" value="" style="endArrow=none;html=1;exitX=0.5;exitY=0;exitDx=0;exitDy=0;entryX=1;entryY=1;entryDx=0;entryDy=0;fontFamily=Helvetica;fontColor=#FFFFFF;fontStyle=0;labelBackgroundColor=none;" parent="1" source="133" target="111" edge="1">
                    <mxGeometry width="50" height="50" relative="1" as="geometry">
                        <mxPoint x="-870" y="-310" as="sourcePoint"/>
                        <mxPoint x="-910" y="-480" as="targetPoint"/>
                    </mxGeometry>
                </mxCell>
                <mxCell id="189" value="CN&lt;br style=&quot;border-color: var(--border-color);&quot;&gt;if-upf-2-cn" style="edgeLabel;html=1;align=center;verticalAlign=middle;resizable=0;points=[];fontFamily=Helvetica;fontColor=#FFFFFF;fontStyle=0;labelBackgroundColor=none;" parent="188" vertex="1" connectable="0">
                    <mxGeometry x="-0.0734" y="-1" relative="1" as="geometry">
                        <mxPoint x="8" y="-21" as="offset"/>
                    </mxGeometry>
                </mxCell>
                <mxCell id="190" value="&lt;span style=&quot;font-size: 12px;&quot;&gt;10.1.20.102&lt;/span&gt;" style="edgeLabel;html=1;align=center;verticalAlign=middle;resizable=0;points=[];fontFamily=Helvetica;fontColor=#FFFFFF;fontStyle=0;labelBackgroundColor=none;" parent="188" vertex="1" connectable="0">
                    <mxGeometry x="-0.4292" y="1" relative="1" as="geometry">
                        <mxPoint x="12" y="14" as="offset"/>
                    </mxGeometry>
                </mxCell>
                <mxCell id="191" value="" style="endArrow=none;html=1;exitX=0.5;exitY=1;exitDx=0;exitDy=0;entryX=1;entryY=0;entryDx=0;entryDy=0;fontFamily=Helvetica;fontColor=#FFFFFF;fontStyle=0;labelBackgroundColor=none;" parent="1" source="112" target="163" edge="1">
                    <mxGeometry width="50" height="50" relative="1" as="geometry">
                        <mxPoint x="-520" y="-470" as="sourcePoint"/>
                        <mxPoint x="-120" y="-410" as="targetPoint"/>
                    </mxGeometry>
                </mxCell>
                <mxCell id="193" value="&lt;span style=&quot;font-size: 12px;&quot;&gt;10.1.20.203/24&lt;/span&gt;" style="edgeLabel;html=1;align=center;verticalAlign=middle;resizable=0;points=[];fontFamily=Helvetica;fontColor=#FFFFFF;fontStyle=0;labelBackgroundColor=none;" parent="191" vertex="1" connectable="0">
                    <mxGeometry x="0.4586" relative="1" as="geometry">
                        <mxPoint x="45" y="20" as="offset"/>
                    </mxGeometry>
                </mxCell>
                <mxCell id="218" value="CN&lt;br&gt;if-cu-up-3-cn" style="edgeLabel;html=1;align=center;verticalAlign=middle;resizable=0;points=[];fontFamily=Helvetica;fontColor=#FFFFFF;fontStyle=0;labelBackgroundColor=none;" parent="191" vertex="1" connectable="0">
                    <mxGeometry x="-0.5189" y="3" relative="1" as="geometry">
                        <mxPoint x="13" y="34" as="offset"/>
                    </mxGeometry>
                </mxCell>
                <mxCell id="194" value="" style="endArrow=none;html=1;exitX=0.5;exitY=0;exitDx=0;exitDy=0;entryX=0.75;entryY=1;entryDx=0;entryDy=0;fontFamily=Helvetica;fontColor=#FFFFFF;fontStyle=0;labelBackgroundColor=none;" parent="1" source="172" target="112" edge="1">
                    <mxGeometry width="50" height="50" relative="1" as="geometry">
                        <mxPoint x="-420" y="-340" as="sourcePoint"/>
                        <mxPoint x="-520" y="-470" as="targetPoint"/>
                    </mxGeometry>
                </mxCell>
                <mxCell id="196" value="&lt;span style=&quot;font-size: 12px;&quot;&gt;10.1.20.103&lt;/span&gt;" style="edgeLabel;html=1;align=center;verticalAlign=middle;resizable=0;points=[];fontFamily=Helvetica;fontColor=#FFFFFF;fontStyle=0;labelBackgroundColor=none;" parent="194" vertex="1" connectable="0">
                    <mxGeometry x="-0.4292" y="1" relative="1" as="geometry">
                        <mxPoint x="12" as="offset"/>
                    </mxGeometry>
                </mxCell>
                <mxCell id="217" value="CN&lt;br&gt;if-upf-3-cn" style="edgeLabel;html=1;align=center;verticalAlign=middle;resizable=0;points=[];fontFamily=Helvetica;fontColor=#FFFFFF;fontStyle=0;labelBackgroundColor=none;" parent="194" vertex="1" connectable="0">
                    <mxGeometry x="0.509" relative="1" as="geometry">
                        <mxPoint x="-9" y="-4" as="offset"/>
                    </mxGeometry>
                </mxCell>
                <mxCell id="197" value="" style="endArrow=none;html=1;entryX=0.75;entryY=1;entryDx=0;entryDy=0;exitX=0.5;exitY=0;exitDx=0;exitDy=0;fontFamily=Helvetica;fontColor=#FFFFFF;fontStyle=0;labelBackgroundColor=none;" parent="1" source="112" target="3" edge="1">
                    <mxGeometry width="50" height="50" relative="1" as="geometry">
                        <mxPoint x="-245" y="-530" as="sourcePoint"/>
                        <mxPoint x="-480" y="-750" as="targetPoint"/>
                    </mxGeometry>
                </mxCell>
                <mxCell id="198" value="CN&lt;br&gt;if-cu-cp-cn" style="edgeLabel;html=1;align=center;verticalAlign=middle;resizable=0;points=[];fontFamily=Helvetica;fontColor=#FFFFFF;fontStyle=0;labelBackgroundColor=none;" parent="197" vertex="1" connectable="0">
                    <mxGeometry x="0.2775" relative="1" as="geometry">
                        <mxPoint x="26" as="offset"/>
                    </mxGeometry>
                </mxCell>
                <mxCell id="199" value="10.1.20.50/24" style="edgeLabel;html=1;align=center;verticalAlign=middle;resizable=0;points=[];fontFamily=Helvetica;fontColor=#FFFFFF;fontStyle=0;labelBackgroundColor=none;" parent="197" vertex="1" connectable="0">
                    <mxGeometry x="0.3362" y="-1" relative="1" as="geometry">
                        <mxPoint x="-9" y="-22" as="offset"/>
                    </mxGeometry>
                </mxCell>
                <mxCell id="200" value="" style="endArrow=none;html=1;entryX=0.75;entryY=0;entryDx=0;entryDy=0;exitX=0.5;exitY=1;exitDx=0;exitDy=0;fontFamily=Helvetica;fontColor=#FFFFFF;fontStyle=0;labelBackgroundColor=none;" parent="1" source="2" target="112" edge="1">
                    <mxGeometry width="50" height="50" relative="1" as="geometry">
                        <mxPoint x="-215" y="-530" as="sourcePoint"/>
                        <mxPoint x="-420" y="-750" as="targetPoint"/>
                    </mxGeometry>
                </mxCell>
                <mxCell id="201" value="CN&lt;br&gt;&lt;div style=&quot;font-size: 14px; line-height: 19px;&quot;&gt;&lt;span style=&quot;&quot;&gt;if-oai-cn5g&lt;/span&gt;&lt;/div&gt;" style="edgeLabel;html=1;align=center;verticalAlign=middle;resizable=0;points=[];fontFamily=Helvetica;fontColor=#FFFFFF;fontStyle=0;labelBackgroundColor=none;" parent="200" vertex="1" connectable="0">
                    <mxGeometry x="0.2775" relative="1" as="geometry">
                        <mxPoint x="148" y="-11" as="offset"/>
                    </mxGeometry>
                </mxCell>
                <mxCell id="202" value="10.1.20.0/24" style="edgeLabel;html=1;align=center;verticalAlign=middle;resizable=0;points=[];fontFamily=Helvetica;fontColor=#FFFFFF;fontStyle=0;labelBackgroundColor=none;" parent="200" vertex="1" connectable="0">
                    <mxGeometry x="0.3362" y="-1" relative="1" as="geometry">
                        <mxPoint x="56" y="8" as="offset"/>
                    </mxGeometry>
                </mxCell>
                <mxCell id="203" value="NSSF&lt;br&gt;10.1.20.17" style="rounded=0;whiteSpace=wrap;html=1;fontFamily=Helvetica;fontColor=#FFFFFF;fontStyle=0;labelBackgroundColor=none;" parent="1" vertex="1">
                    <mxGeometry x="-80" y="-1030" width="120" height="60" as="geometry"/>
                </mxCell>
                <mxCell id="204" value="SMF-2&lt;br&gt;10.1.20.52" style="rounded=0;whiteSpace=wrap;html=1;fontFamily=Helvetica;fontColor=#FFFFFF;fontStyle=0;labelBackgroundColor=none;" parent="1" vertex="1">
                    <mxGeometry x="100" y="-720" width="120" height="60" as="geometry"/>
                </mxCell>
                <mxCell id="205" value="SMF-3&lt;br&gt;10.1.20.53" style="rounded=0;whiteSpace=wrap;html=1;fontFamily=Helvetica;fontColor=#FFFFFF;fontStyle=0;labelBackgroundColor=none;" parent="1" vertex="1">
                    <mxGeometry x="240" y="-720" width="120" height="60" as="geometry"/>
                </mxCell>
                <mxCell id="221" value="10ms&lt;br&gt;50Mbps" style="text;html=1;align=center;verticalAlign=middle;resizable=0;points=[];autosize=1;strokeColor=none;fillColor=none;fontColor=#FFFFFF;labelBackgroundColor=none;" parent="1" vertex="1">
                    <mxGeometry x="-825" y="-510" width="70" height="40" as="geometry"/>
                </mxCell>
                <mxCell id="222" value="10ms&lt;br&gt;100Mbps" style="text;html=1;align=center;verticalAlign=middle;resizable=0;points=[];autosize=1;strokeColor=none;fillColor=none;fontColor=#FFFFFF;labelBackgroundColor=none;" parent="1" vertex="1">
                    <mxGeometry x="-460" y="-510" width="70" height="40" as="geometry"/>
                </mxCell>
                <mxCell id="225" value="10.1.50.10/24" style="edgeLabel;html=1;align=center;verticalAlign=middle;resizable=0;points=[];fontFamily=Helvetica;fontColor=#FFFFFF;fontStyle=0;labelBackgroundColor=none;" parent="1" vertex="1" connectable="0">
                    <mxGeometry x="-1120.0009568630287" y="-130.00155660389112" as="geometry"/>
                </mxCell>
                <mxCell id="227" value="CU-UP-4 .204" style="rounded=0;whiteSpace=wrap;html=1;fontFamily=Helvetica;fontColor=#FFFFFF;fontStyle=0;labelBackgroundColor=none;" parent="1" vertex="1">
                    <mxGeometry x="-970" y="-110" width="120" height="60" as="geometry"/>
                </mxCell>
                <mxCell id="228" value="" style="endArrow=none;html=1;entryX=0.5;entryY=0;entryDx=0;entryDy=0;exitX=0.25;exitY=1;exitDx=0;exitDy=0;fontFamily=Helvetica;fontColor=#FFFFFF;fontStyle=0;labelBackgroundColor=none;" parent="1" source="110" target="227" edge="1">
                    <mxGeometry width="50" height="50" relative="1" as="geometry">
                        <mxPoint x="-728.9100000000001" y="-106.85000000000002" as="sourcePoint"/>
                        <mxPoint x="-408.91" y="-19.129999999999995" as="targetPoint"/>
                    </mxGeometry>
                </mxCell>
                <mxCell id="229" value="E1&lt;br&gt;if-cu-up-4-e1" style="edgeLabel;html=1;align=center;verticalAlign=middle;resizable=0;points=[];fontFamily=Helvetica;fontColor=#FFFFFF;fontStyle=0;labelBackgroundColor=none;" parent="228" vertex="1" connectable="0">
                    <mxGeometry x="-0.3458" y="1" relative="1" as="geometry">
                        <mxPoint x="33" y="146" as="offset"/>
                    </mxGeometry>
                </mxCell>
                <mxCell id="230" value="10.1.150.204/24" style="edgeLabel;html=1;align=center;verticalAlign=middle;resizable=0;points=[];fontFamily=Helvetica;fontColor=#FFFFFF;fontStyle=0;labelBackgroundColor=none;" parent="228" vertex="1" connectable="0">
                    <mxGeometry x="0.4586" relative="1" as="geometry">
                        <mxPoint x="2" y="61" as="offset"/>
                    </mxGeometry>
                </mxCell>
                <mxCell id="231" value="" style="endArrow=none;html=1;entryX=0;entryY=1;entryDx=0;entryDy=0;exitX=0;exitY=0;exitDx=0;exitDy=0;fontFamily=Helvetica;fontColor=#FFFFFF;fontStyle=0;labelBackgroundColor=none;" parent="1" source="227" target="110" edge="1">
                    <mxGeometry width="50" height="50" relative="1" as="geometry">
                        <mxPoint x="-528.9100000000001" y="210.8699999999999" as="sourcePoint"/>
                        <mxPoint x="-758.9100000000001" y="-106.85000000000002" as="targetPoint"/>
                    </mxGeometry>
                </mxCell>
                <mxCell id="232" value="F1-U&lt;br&gt;if-cu-up-4-f1u" style="edgeLabel;html=1;align=center;verticalAlign=middle;resizable=0;points=[];fontFamily=Helvetica;fontColor=#FFFFFF;fontStyle=0;labelBackgroundColor=none;" parent="231" vertex="1" connectable="0">
                    <mxGeometry x="0.244" relative="1" as="geometry">
                        <mxPoint x="30" y="172" as="offset"/>
                    </mxGeometry>
                </mxCell>
                <mxCell id="233" value="10.1.100.204/24" style="edgeLabel;html=1;align=center;verticalAlign=middle;resizable=0;points=[];fontFamily=Helvetica;fontColor=#FFFFFF;fontStyle=0;labelBackgroundColor=none;" parent="231" vertex="1" connectable="0">
                    <mxGeometry x="-0.6052" y="1" relative="1" as="geometry">
                        <mxPoint x="-16" y="72" as="offset"/>
                    </mxGeometry>
                </mxCell>
                <mxCell id="234" value="" style="endArrow=none;html=1;exitX=0.5;exitY=0;exitDx=0;exitDy=0;entryX=0.75;entryY=1;entryDx=0;entryDy=0;fontFamily=Helvetica;fontColor=#FFFFFF;fontStyle=0;labelBackgroundColor=none;" parent="1" source="237" target="110" edge="1">
                    <mxGeometry width="50" height="50" relative="1" as="geometry">
                        <mxPoint x="-536.7896520931197" y="1.1299999999999955" as="sourcePoint"/>
                        <mxPoint x="-668.9100000000001" y="-106.85000000000002" as="targetPoint"/>
                    </mxGeometry>
                </mxCell>
                <mxCell id="235" value="CN&lt;br&gt;if-upf-4-cn" style="edgeLabel;html=1;align=center;verticalAlign=middle;resizable=0;points=[];fontFamily=Helvetica;fontColor=#FFFFFF;fontStyle=0;labelBackgroundColor=none;" parent="234" vertex="1" connectable="0">
                    <mxGeometry x="-0.0734" y="-1" relative="1" as="geometry">
                        <mxPoint x="30" y="40" as="offset"/>
                    </mxGeometry>
                </mxCell>
                <mxCell id="236" value="&lt;span style=&quot;font-size: 12px;&quot;&gt;10.1.20.104&lt;/span&gt;" style="edgeLabel;html=1;align=center;verticalAlign=middle;resizable=0;points=[];fontFamily=Helvetica;fontColor=#FFFFFF;fontStyle=0;labelBackgroundColor=none;" parent="234" vertex="1" connectable="0">
                    <mxGeometry x="-0.4292" y="1" relative="1" as="geometry">
                        <mxPoint x="59" y="67" as="offset"/>
                    </mxGeometry>
                </mxCell>
                <mxCell id="237" value="UPF-4 .104" style="rounded=0;whiteSpace=wrap;html=1;fontFamily=Helvetica;fontColor=#FFFFFF;fontStyle=0;labelBackgroundColor=none;" parent="1" vertex="1">
                    <mxGeometry x="-760" y="-199.9999999999999" width="120" height="60" as="geometry"/>
                </mxCell>
                <mxCell id="238" value="" style="endArrow=none;html=1;entryX=0.5;entryY=1;entryDx=0;entryDy=0;fontFamily=Helvetica;fontColor=#FFFFFF;fontStyle=0;labelBackgroundColor=none;" parent="1" target="237" edge="1">
                    <mxGeometry width="50" height="50" relative="1" as="geometry">
                        <mxPoint x="-690" y="-30" as="sourcePoint"/>
                        <mxPoint x="91.08999999999992" y="143.1500000000001" as="targetPoint"/>
                    </mxGeometry>
                </mxCell>
                <mxCell id="239" value="N6" style="edgeLabel;html=1;align=center;verticalAlign=middle;resizable=0;points=[];fontFamily=Helvetica;fontColor=#FFFFFF;fontStyle=0;labelBackgroundColor=none;" parent="238" vertex="1" connectable="0">
                    <mxGeometry x="0.2403" y="-1" relative="1" as="geometry">
                        <mxPoint x="9" y="-13" as="offset"/>
                    </mxGeometry>
                </mxCell>
                <mxCell id="240" value="" style="endArrow=none;html=1;entryX=1;entryY=0;entryDx=0;entryDy=0;exitX=0.5;exitY=1;exitDx=0;exitDy=0;fontFamily=Helvetica;fontColor=#FFFFFF;fontStyle=0;labelBackgroundColor=none;" parent="1" source="110" target="227" edge="1">
                    <mxGeometry width="50" height="50" relative="1" as="geometry">
                        <mxPoint x="-698.9100000000001" y="-106.85000000000002" as="sourcePoint"/>
                        <mxPoint x="-778.9100000000001" y="43.14999999999998" as="targetPoint"/>
                    </mxGeometry>
                </mxCell>
                <mxCell id="241" value="CN&lt;br&gt;if-cu-up-4-cn" style="edgeLabel;html=1;align=center;verticalAlign=middle;resizable=0;points=[];fontFamily=Helvetica;fontColor=#FFFFFF;fontStyle=0;labelBackgroundColor=none;" parent="240" vertex="1" connectable="0">
                    <mxGeometry x="-0.3458" y="1" relative="1" as="geometry">
                        <mxPoint x="53" y="187" as="offset"/>
                    </mxGeometry>
                </mxCell>
                <mxCell id="242" value="&lt;span style=&quot;font-size: 12px;&quot;&gt;10.1.20.204/24&lt;/span&gt;" style="edgeLabel;html=1;align=center;verticalAlign=middle;resizable=0;points=[];fontFamily=Helvetica;fontColor=#FFFFFF;fontStyle=0;labelBackgroundColor=none;" parent="240" vertex="1" connectable="0">
                    <mxGeometry x="0.4586" relative="1" as="geometry">
                        <mxPoint x="17" y="101" as="offset"/>
                    </mxGeometry>
                </mxCell>
                <mxCell id="243" value="FlexRIC" style="rounded=0;whiteSpace=wrap;html=1;fontFamily=Helvetica;fontColor=#FFFFFF;fontStyle=0;labelBackgroundColor=none;" parent="1" vertex="1">
                    <mxGeometry x="-1055" y="-740" width="120" height="60" as="geometry"/>
                </mxCell>
                <mxCell id="245" value="" style="endArrow=none;html=1;entryX=0.5;entryY=1;entryDx=0;entryDy=0;fontFamily=Helvetica;fontColor=#FFFFFF;fontStyle=0;labelBackgroundColor=none;" parent="1" source="110" target="243" edge="1">
                    <mxGeometry width="50" height="50" relative="1" as="geometry">
                        <mxPoint x="-700" y="-100" as="sourcePoint"/>
                        <mxPoint x="-940" y="-480" as="targetPoint"/>
                    </mxGeometry>
                </mxCell>
                <mxCell id="248" value="&lt;div style=&quot;color: rgb(248, 248, 242); background-color: rgb(40, 42, 54); font-family: Consolas, &amp;quot;Courier New&amp;quot;, monospace; font-size: 14px; line-height: 19px;&quot;&gt;&lt;br&gt;&lt;/div&gt;" style="edgeLabel;html=1;align=center;verticalAlign=middle;resizable=0;points=[];" parent="245" vertex="1" connectable="0">
                    <mxGeometry x="0.4944" y="1" relative="1" as="geometry">
                        <mxPoint as="offset"/>
                    </mxGeometry>
                </mxCell>
                <mxCell id="249" value="&lt;span style=&quot;color: rgb(189, 147, 249); font-family: Consolas, &amp;quot;Courier New&amp;quot;, monospace; font-size: 14px; background-color: rgb(40, 42, 54);&quot;&gt;172.60.0.100&lt;/span&gt;" style="edgeLabel;html=1;align=center;verticalAlign=middle;resizable=0;points=[];" parent="245" vertex="1" connectable="0">
                    <mxGeometry x="0.5836" y="-1" relative="1" as="geometry">
                        <mxPoint as="offset"/>
                    </mxGeometry>
                </mxCell>
            </root>
        </mxGraphModel>
    </diagram>
</mxfile>